<svg xmlns="http://www.w3.org/2000/svg" width="266" height="32" fill="none" viewBox="0 0 266 32"><path fill="#FFF" fill-rule="evenodd" clip-rule="evenodd" d="M0 0V31.9298H7.31355V31.9284C7.31355 18.3301 18.3176 7.30447 31.8985 7.28697V0H0ZM47.9577 32V0.0701714L40.6282 0.0701717C40.6244 13.66 29.6304 24.6786 16.0592 24.7047V32H47.9577Z"></path><path fill="#FFF" fill-rule="evenodd" clip-rule="evenodd" d="M203.064 31.7501C197.199 30.7622 192.235 27.3522 190.135 22.8676C189.143 20.7491 188.778 19.2655 188.65 16.8378C188.398 12.0603 189.806 8.30307 193.023 5.16486C196.765 1.5143 201.817 -0.218554 207.867 0.0729304C211.306 0.238556 214.043 0.988091 216.812 2.52271C218.103 3.23786 220.117 4.61043 220.285 4.88947C220.41 5.09632 217.822 8.9542 217.547 8.97192C217.459 8.97732 216.878 8.62734 216.255 8.19359C214.587 7.03156 212.856 6.18587 211.107 5.67895C208.859 5.02719 204.459 5.02431 202.245 5.67278C197.976 6.92428 195.02 9.57359 194.06 13.0067C193.124 16.3586 193.825 19.8596 195.955 22.4732C199.871 27.2758 209.004 28.3075 215.023 24.6271L216.117 23.9586L216.173 21.676L216.229 19.3933H211.949H207.669V16.7394V14.0855H214.427H221.186V20.3883V26.691L219.645 27.7139C216.427 29.8505 214.303 30.8085 211.351 31.4542C208.917 31.9866 205.247 32.1179 203.064 31.7501ZM242.911 31.7148C235.454 30.3168 230.282 25.6706 228.943 19.1663C228.575 17.3755 228.667 13.566 229.123 11.783C230.185 7.62188 232.851 4.47298 237.075 2.3874C246.371 -2.20125 258.075 0.154323 262.955 7.59587C264.581 10.0744 265.35 12.7432 265.35 15.9011C265.35 23.5467 260.46 29.2195 251.968 31.4245C249.789 31.9902 245.17 32.1382 242.911 31.7148ZM251.565 26.2028C255.741 24.9478 258.729 22.3795 259.708 19.2028C261.296 14.0539 259.196 9.12705 254.451 6.86774C251.883 5.64498 250.262 5.31585 246.936 5.3421C244.495 5.36137 243.878 5.43707 242.313 5.9085C236.85 7.5546 233.961 10.9801 233.885 15.9011C233.839 18.8763 234.591 20.9504 236.415 22.8825C238.071 24.6364 240.318 25.85 243.084 26.4845C244.95 26.9126 249.732 26.7538 251.565 26.2028ZM150.121 22.6698C152.634 27.7739 157.687 31.0545 164.278 31.8608C166.468 32.1287 169.863 31.8312 172.405 31.1485C174.335 30.6305 177.429 29.1555 179.61 27.7141L181.227 26.6453V20.3337V14.0221H174.487H167.747V16.6771V19.3322H172.015H176.284L176.228 21.6192L176.172 23.9063L174.586 24.7849C171.538 26.4738 168.203 27.121 164.739 26.6962C159.086 26.0028 155.125 22.9515 153.976 18.4046C153.362 15.9768 153.753 12.967 154.961 10.8314C155.856 9.2494 157.684 7.57359 159.504 6.66686C161.911 5.46812 163.396 5.15574 166.657 5.16191C170.679 5.16979 172.656 5.75549 175.905 7.90251C176.748 8.46005 177.478 8.91621 177.525 8.91621C177.573 8.91621 178.173 8.11204 178.858 7.12917C179.543 6.14628 180.183 5.2339 180.281 5.10163C180.648 4.604 176.101 1.85026 173.496 0.992867C171.103 0.205449 169.897 0.0376173 166.657 0.0414768C163.41 0.0452437 162.253 0.220983 159.502 1.128C155.42 2.4739 151.891 5.468 150.118 9.09115C148.176 13.057 148.178 18.7218 150.121 22.6698ZM107.224 31.1657C107.224 31.0357 109.65 26.5035 118.419 10.2532L123.51 0.816564L126.142 0.767869L128.773 0.719185L132.552 7.73108C134.63 11.5876 138.33 18.4275 140.773 22.9307C143.217 27.434 145.216 31.1549 145.216 31.1994C145.216 31.244 143.86 31.2794 142.203 31.2781L139.191 31.2758L137.267 27.6881L135.343 24.1004L126.032 24.102L116.722 24.1035L114.852 27.6411L112.981 31.1786L110.103 31.2355C108.52 31.2668 107.224 31.235 107.224 31.1657ZM131.731 17.0742C131.168 16.0306 129.683 13.2577 128.431 10.9124C127.178 8.56705 126.085 6.72076 126.001 6.80951C125.848 6.97152 120.926 16.0919 119.979 17.9694L119.473 18.9718H126.113H132.754L131.731 17.0742ZM77.4284 0.720502V16V31.2795H79.9779H82.5273V25.7635V20.2476L90.9405 20.163C100.154 20.0703 100.626 20.0134 102.407 18.7816C103.509 18.0198 105.036 16.3553 105.533 15.3742C107.483 11.5273 106.689 6.1445 103.746 3.2628C103.237 2.76471 102.138 2.01703 101.302 1.60128C100.467 1.18552 99.4318 0.845361 98.1687 0.845361C96.9056 0.845361 88.606 0.782932 88.606 0.782932L77.4284 0.720502ZM99.4948 14.3848C99.0945 14.5529 97.9353 14.7785 96.9188 14.8862C95.9023 14.9938 92.2484 15.083 88.799 15.0853L82.5273 15.0892V10.4779V5.86671L89.3089 5.87058C93.0387 5.87282 96.723 5.96653 97.4962 6.07883C100.083 6.4546 101.24 7.52937 101.439 9.74402C101.667 12.2662 101.053 13.7304 99.4948 14.3848Z"></path></svg>